<?xml version="1.0" encoding="UTF-8" standalone="no"?>
<svg
   version="1.1"
   viewBox="0 0 1024 1024"
   id="svg448"
   sodipodi:docname="logo.svg"
   width="1024"
   height="1024"
   inkscape:version="1.2 (1:1.2.1+202207142221+cd75a1ee6d)"
   inkscape:export-filename="logo.png"
   inkscape:export-xdpi="12"
   inkscape:export-ydpi="12"
   xmlns:inkscape="http://www.inkscape.org/namespaces/inkscape"
   xmlns:sodipodi="http://sodipodi.sourceforge.net/DTD/sodipodi-0.dtd"
   xmlns="http://www.w3.org/2000/svg"
   xmlns:svg="http://www.w3.org/2000/svg">
  <defs
     id="defs452" />
  <sodipodi:namedview
     id="namedview450"
     pagecolor="#ffffff"
     bordercolor="#666666"
     borderopacity="1.0"
     inkscape:showpageshadow="2"
     inkscape:pageopacity="0.0"
     inkscape:pagecheckerboard="0"
     inkscape:deskcolor="#d1d1d1"
     showgrid="false"
     inkscape:zoom="0.35388514"
     inkscape:cx="254.31981"
     inkscape:cy="712.09546"
     inkscape:window-width="1920"
     inkscape:window-height="1012"
     inkscape:window-x="0"
     inkscape:window-y="0"
     inkscape:window-maximized="1"
     inkscape:current-layer="svg448" />
  <g
     id="g3759"
     transform="matrix(1.062899,0,0,1.0652863,-32.210982,-33.426595)"
     style="stroke-width:0.939768">
    <path
       fill="#a74224"
       d="m 772.28418,666.93636 c 5.18425,-51.22476 22.46506,-112.54601 16.6709,-162.36024 Q 770.45445,345.92783 749.10757,193.66407 a 9.555272,6.9784464 0 0 1 9.55527,-7.72084 l 150.34305,-0.37119 a 6.3034628,4.6762653 0.29897695 0 1 6.20077,3.78618 q 38.32274,154.49092 77.25539,309.05609 2.54129,10.31919 -0.10166,20.71262 -18.80558,74.16455 -33.85006,148.55182 a 5.7934756,4.1578594 0.25030794 0 1 -5.6925,3.48922 l -175.75601,-0.44543 a 4.777636,3.4892232 0 0 1 -4.77764,-3.78618 z"
       id="path424"
       style="display:inline;fill:#23678a;fill-opacity:1;stroke:none;stroke-width:0.928492;stroke-dasharray:none" />
    <path
       fill="#d9783b"
       d="M 874.13932,992.62194 H 731.62345 a 3.0495549,2.2271637 0 0 1 -3.04955,-2.44988 l 37.81448,-286.93293 a 3.0495549,2.2271637 0 0 1 3.04955,-2.00445 h 175.04445 a 3.0495549,2.2271637 0 0 1 3.04956,2.59836 l -70.44472,286.93293 a 3.0495549,2.2271637 0 0 1 -2.9479,1.85597 z"
       id="path426"
       style="fill:#93cdeb;fill-opacity:1;stroke:none;stroke-width:0.928492;stroke-dasharray:none" />
    <path
       fill="#e75733"
       d="M 744.22828,150.75405 729.18381,34.867294 a 4.167725,3.0437904 0 0 1 4.16772,-3.340745 l 140.27953,-0.07424 a 4.167725,3.0437904 0 0 1 4.16772,2.524119 l 27.54765,116.703382 a 4.167725,3.0437904 0 0 1 -4.16773,3.56346 L 748.396,153.50088 a 4.167725,3.0437904 0 0 1 -4.16772,-2.74683 z"
       id="path428"
       style="fill:#33aae7;fill-opacity:1;stroke:none;stroke-width:0.928492;stroke-dasharray:none" />
    <path
       fill="#ce6643"
       d="m 705.39728,838.50221 a 2.9479031,2.1529249 0 0 1 -2.9479,1.93021 l -164.47267,-0.0742 a 5.7941543,4.2316111 0 0 1 -5.79415,-4.45433 q 2.5413,-39.94047 0.71156,-108.16592 -4.37103,-152.338 0.10165,-370.67428 a 6.5057171,4.7512826 0 0 1 6.50572,-4.75129 h 182.26173 a 6.7092924,4.9737976 0.14330935 0 1 6.70902,4.45433 c 7.82719,56.94115 25.10801,123.53335 17.68742,179.80635 q -19.11054,144.17174 -40.76238,301.92917 z"
       id="path430"
       style="fill:#2e86b4;fill-opacity:1;stroke:none;stroke-width:0.928492;stroke-dasharray:none" />
    <path
       fill="#d9783b"
       d="m 533.19908,317.19742 0.50826,-282.775558 a 4.167725,3.0437904 0 0 1 4.16772,-3.043791 h 140.99109 a 7.3191493,5.4192706 0.11739534 0 1 7.31893,4.89976 c 11.89327,92.427299 34.15502,190.274019 35.37484,282.478599 a 4.9809397,3.6377008 0 0 1 -4.98094,3.71194 l -175.95932,0.14848 a 7.4205836,5.4194317 0 0 1 -7.42058,-5.41943 z"
       id="path432"
       style="fill:#93cdeb;fill-opacity:1;stroke:none;stroke-width:0.928492;stroke-dasharray:none" />
    <path
       fill="#e75733"
       d="m 682.22066,992.62194 h -144.5489 a 3.7611177,2.7468353 0 0 1 -3.76112,-2.74684 V 872.87477 a 3.7611177,2.7468353 0 0 1 3.76112,-2.74684 h 159.49172 a 3.7611177,2.7468353 0 0 1 3.76112,2.96955 l -14.94282,117.00034 a 3.7611177,2.7468353 0 0 1 -3.76112,2.52412 z"
       id="path434"
       style="fill:#33aae7;fill-opacity:1;stroke:none;stroke-width:0.928492;stroke-dasharray:none" />
    <path
       fill="#a74224"
       d="m 340.77216,31.526549 146.68359,0.445432 a 3.2528586,2.3756413 0 0 1 3.25286,2.375642 V 151.19948 a 3.2528586,2.3756413 0 0 1 -3.25286,2.37564 H 326.94752 a 3.2528586,2.3756413 0 0 1 -3.25286,-2.59836 L 337.51931,33.679474 a 3.2528586,2.3756413 0 0 1 3.25285,-2.152925 z"
       id="path436"
       style="fill:#2e86b4;fill-opacity:1;stroke:none;stroke-width:0.928492;stroke-dasharray:none" />
    <path
       fill="#e75733"
       d="m 317.39224,187.57649 a 5.8958061,4.3058499 0 0 1 5.99746,-3.93466 l 161.93137,1.03934 a 5.1842433,3.8604171 0 0 1 5.18424,3.86042 l 0.10165,479.2114 a 4.9809397,3.7119396 0 0 1 -4.98094,3.71194 l -185.31128,-0.14848 a 5.4897787,4.1569332 0.37383332 0 1 -5.4892,-3.71194 C 287.1,604.0561 271.54727,539.02292 279.67941,475.32604 q 18.50064,-143.65206 37.71283,-287.74955 z"
       id="path438"
       style="fill:#33aae7;fill-opacity:1;stroke:none;stroke-width:0.928492;stroke-dasharray:none" />
    <path
       fill="#a74224"
       d="m 302.34777,701.38316 184.80303,0.14848 a 3.557814,2.5983577 0 0 1 3.55781,2.59836 v 285.89358 a 3.557814,2.5983577 0 0 1 -3.55781,2.59836 H 340.97547 a 3.557814,2.5983577 0 0 1 -3.55782,-2.37564 L 298.78996,704.20423 a 3.557814,2.5983577 0 0 1 3.55781,-2.82107 z"
       id="path440"
       style="fill:#23678a;fill-opacity:1;stroke:none;stroke-width:0.928492;stroke-dasharray:none" />
    <path
       fill="#ce6643"
       d="M 253.04663,323.73043 83.288079,322.24565 a 3.1512067,2.3014025 0 0 1 -3.049555,-2.74683 L 157.29061,33.30828 a 3.1512067,2.3014025 0 0 1 3.15121,-1.85597 l 131.13086,0.148478 a 3.1512067,2.3014025 0 0 1 3.15121,2.524118 L 256.19784,321.65174 a 3.1512067,2.3014025 0 0 1 -3.15121,2.07869 z"
       id="path442"
       style="fill:#23678a;fill-opacity:1;stroke:none;stroke-width:0.928492;stroke-dasharray:none" />
    <path
       fill="#d9783b"
       d="m 126.69341,874.2853 q -1.62643,-0.59391 -1.82973,-1.78173 a 2.7445994,2.0044474 0 0 1 2.7446,-2.3014 l 147.09019,-0.0742 a 5.387547,3.9346559 0 0 1 5.38755,3.6377 l 15.14612,115.44132 a 2.7469847,3.8625594 89.793052 0 1 -3.86277,3.04379 L 162.3732,991.80531 a 6.3024135,4.602805 0 0 1 -6.20076,-3.71194 Q 141.33127,930.70679 126.69341,874.2853 Z"
       id="path444"
       style="fill:#3ba4d9;fill-opacity:1;stroke:none;stroke-width:0.928492;stroke-dasharray:none" />
    <path
       fill="#a74224"
       d="m 236.68069,543.77421 q 17.38246,145.06259 38.11944,291.90692 a 5.6927577,4.2314214 0.16437982 0 1 -5.69251,4.60281 H 121.10256 a 5.7951355,4.3051208 0.31522541 0 1 -5.6925,-3.48923 Q 74.342718,681.11597 31.852253,526.25385 c -2.236341,-8.01779 -2.033037,-21.75196 0.508259,-31.40301 Q 50.657841,425.14062 71.69977,355.80159 a 6.2007616,4.5285663 0 0 1 5.997458,-3.48923 H 246.43927 a 4.9807262,3.5636147 0.16298896 0 1 4.98094,3.93466 c -7.01398,62.50906 -22.1601,125.09236 -14.73952,187.52719 z"
       id="path446"
       style="fill:#2e86b4;fill-opacity:1;stroke:none;stroke-width:0.928492;stroke-dasharray:none" />
  </g>
</svg>
